<svg width="33" height="39" viewBox="0 0 33 39" fill="none" xmlns="http://www.w3.org/2000/svg">
<g filter="url(#filter0_d_1_2)">
<path d="M28.16 7.976C27.584 9.48 26.768 11.032 25.712 12.632C24.656 14.232 23.408 15.752 21.968 17.192C20.56 18.6 19.008 19.848 17.312 20.936C15.648 21.992 13.92 22.76 12.128 23.24C11.616 23.368 11.2 23.464 10.88 23.528C10.56 23.56 10.304 23.576 10.112 23.576C9.952 23.544 9.84 23.512 9.776 23.48C9.712 23.448 9.664 23.448 9.632 23.48C9.632 23.512 9.536 23.72 9.344 24.104C9.152 24.456 8.912 24.904 8.624 25.448C8.336 25.96 8.032 26.52 7.712 27.128C7.392 27.736 7.088 28.296 6.8 28.808C6.448 29.352 6.16 29.736 5.936 29.96C5.712 30.184 5.472 30.296 5.216 30.296C4.96 30.296 4.816 30.184 4.784 29.96C4.784 29.768 4.896 29.576 5.12 29.384C5.248 29.256 5.488 28.872 5.84 28.232C6.192 27.56 6.56 26.84 6.944 26.072C7.328 25.304 7.68 24.6 8 23.96C8.32 23.288 8.512 22.888 8.576 22.76C8.672 22.504 8.688 22.248 8.624 21.992C8.56 21.736 8.544 21.448 8.576 21.128C8.608 20.776 8.752 20.36 9.008 19.88C9.264 19.4 9.728 18.824 10.4 18.152C11.168 16.136 11.744 14.552 12.128 13.4C12.512 12.248 12.784 11.368 12.944 10.76C13.136 10.152 13.264 9.736 13.328 9.512C13.392 9.256 13.488 9.048 13.616 8.888C13.712 8.76 13.84 8.664 14 8.6C14.16 8.536 14.288 8.536 14.384 8.6C14.512 8.664 14.592 8.84 14.624 9.128C14.656 9.416 14.608 9.848 14.48 10.424C14.256 11.608 14.048 12.568 13.856 13.304C13.664 14.04 13.488 14.632 13.328 15.08C13.168 15.496 13.04 15.816 12.944 16.04C12.848 16.264 12.784 16.456 12.752 16.616C12.752 16.648 12.976 16.584 13.424 16.424C13.872 16.264 14.4 16.104 15.008 15.944C15.616 15.784 16.192 15.688 16.736 15.656C17.28 15.624 17.648 15.752 17.84 16.04C17.936 16.296 17.872 16.504 17.648 16.664C17.52 16.76 17.424 16.808 17.36 16.808C17.296 16.808 17.232 16.792 17.168 16.76C17.104 16.696 17.024 16.648 16.928 16.616C16.832 16.552 16.688 16.52 16.496 16.52C16.176 16.52 15.792 16.568 15.344 16.664C14.928 16.76 14.512 16.872 14.096 17C13.68 17.128 13.312 17.256 12.992 17.384C12.672 17.512 12.464 17.624 12.368 17.72C12.336 17.752 12.24 17.912 12.08 18.2C11.952 18.488 11.792 18.856 11.6 19.304C11.44 19.72 11.248 20.168 11.024 20.648C10.8 21.128 10.576 21.592 10.352 22.04C10.288 22.104 10.256 22.168 10.256 22.232C10.224 22.264 10.208 22.296 10.208 22.328C10.272 22.424 10.464 22.456 10.784 22.424C11.136 22.36 11.504 22.28 11.888 22.184C12.272 22.056 12.624 21.928 12.944 21.8C13.264 21.672 13.472 21.592 13.568 21.56C14.432 21.24 15.36 20.728 16.352 20.024C17.344 19.32 18.336 18.504 19.328 17.576C20.352 16.648 21.328 15.64 22.256 14.552C23.184 13.432 24 12.312 24.704 11.192C25.44 10.04 26.016 8.904 26.432 7.784C26.88 6.664 27.104 5.608 27.104 4.616C27.104 3.528 26.768 2.728 26.096 2.216C25.424 1.704 24.528 1.48 23.408 1.544C22.32 1.576 21.088 1.896 19.712 2.504C18.336 3.112 16.96 4.008 15.584 5.192C14.528 6.088 13.52 7.096 12.56 8.216C11.6 9.336 10.72 10.52 9.92 11.768C9.12 12.984 8.416 14.232 7.808 15.512C7.232 16.76 6.784 17.96 6.464 19.112C6.208 20.008 6.08 20.632 6.08 20.984C6.08 21.336 6.128 21.544 6.224 21.608C6.352 21.672 6.496 21.672 6.656 21.608C6.816 21.544 6.944 21.56 7.04 21.656C7.136 21.784 7.12 21.928 6.992 22.088C6.864 22.216 6.688 22.328 6.464 22.424C6.272 22.488 6.064 22.504 5.84 22.472C5.616 22.408 5.44 22.28 5.312 22.088C5.152 21.736 5.152 21.128 5.312 20.264C5.472 19.368 5.792 18.312 6.272 17.096C6.752 15.88 7.376 14.568 8.144 13.16C8.912 11.752 9.824 10.36 10.88 8.984C11.936 7.608 13.12 6.312 14.432 5.096C15.776 3.848 17.216 2.808 18.752 1.976C20.512 1.016 22 0.487998 23.216 0.391999C24.432 0.263999 25.408 0.327999 26.144 0.584C26.912 0.807999 27.456 1.112 27.776 1.496C28.128 1.848 28.304 2.04 28.304 2.072C28.272 2.136 28.32 2.264 28.448 2.456C28.608 2.648 28.736 2.968 28.832 3.416C28.928 3.832 28.944 4.408 28.88 5.144C28.816 5.88 28.576 6.824 28.16 7.976Z" fill="#30C5FF"/>
</g>
<defs>
<filter id="filter0_d_1_2" x="0.783997" y="0.199997" width="32.192" height="38.096" filterUnits="userSpaceOnUse" color-interpolation-filters="sRGB">
<feFlood flood-opacity="0" result="BackgroundImageFix"/>
<feColorMatrix in="SourceAlpha" type="matrix" values="0 0 0 0 0 0 0 0 0 0 0 0 0 0 0 0 0 0 127 0" result="hardAlpha"/>
<feOffset dy="4"/>
<feGaussianBlur stdDeviation="2"/>
<feComposite in2="hardAlpha" operator="out"/>
<feColorMatrix type="matrix" values="0 0 0 0 0 0 0 0 0 0 0 0 0 0 0 0 0 0 0.25 0"/>
<feBlend mode="normal" in2="BackgroundImageFix" result="effect1_dropShadow_1_2"/>
<feBlend mode="normal" in="SourceGraphic" in2="effect1_dropShadow_1_2" result="shape"/>
</filter>
</defs>
</svg>
